<?xml version="1.0" encoding="UTF-8" standalone="no"?>
<!-- Generator: Adobe Illustrator 19.0.0, SVG Export Plug-In . SVG Version: 6.00 Build 0)  -->

<svg
   xmlns:dc="http://purl.org/dc/elements/1.1/"
   xmlns:cc="http://creativecommons.org/ns#"
   xmlns:rdf="http://www.w3.org/1999/02/22-rdf-syntax-ns#"
   xmlns:svg="http://www.w3.org/2000/svg"
   xmlns="http://www.w3.org/2000/svg"
   xmlns:sodipodi="http://sodipodi.sourceforge.net/DTD/sodipodi-0.dtd"
   xmlns:inkscape="http://www.inkscape.org/namespaces/inkscape"
   version="1.1"
   id="Layer_1"
   x="0px"
   y="0px"
   viewBox="0 0 881.80489 215.86103"
   xml:space="preserve"
   sodipodi:docname="logo.svg"
   inkscape:version="0.92+devel unknown"
   width="881.80487"
   height="215.86102"><metadata
     id="metadata93"><rdf:RDF><cc:Work
         rdf:about=""><dc:format>image/svg+xml</dc:format><dc:type
           rdf:resource="http://purl.org/dc/dcmitype/StillImage" /><dc:title></dc:title></cc:Work></rdf:RDF></metadata><defs
     id="defs91" /><sodipodi:namedview
     pagecolor="#ffffff"
     bordercolor="#666666"
     inkscape:document-rotation="0"
     borderopacity="1"
     objecttolerance="10"
     gridtolerance="10"
     guidetolerance="10"
     inkscape:pageopacity="0"
     inkscape:pageshadow="2"
     inkscape:window-width="1440"
     inkscape:window-height="872"
     id="namedview89"
     showgrid="false"
     inkscape:zoom="0.69478354"
     inkscape:cx="716.56908"
     inkscape:cy="87.614045"
     inkscape:window-x="1440"
     inkscape:window-y="0"
     inkscape:window-maximized="1"
     inkscape:current-layer="Layer_1"
     fit-margin-top="0"
     fit-margin-left="0"
     fit-margin-right="0"
     fit-margin-bottom="0" /><g
     id="g16"
     transform="matrix(0.7522577,0,0,0.7522577,-40.999686,33.910376)"><path
       style="fill:#ffffff"
       d="m 376.322,212.18 c 0,-20.313 -16.445,-36.855 -36.72,-37.023 l -10.075,0.01 -0.645,-9.548 c -1.73,-25.512 -23.105,-45.497 -48.66,-45.497 -8.735,0 -17.365,2.395 -24.95,6.922 l -6.73,4.015 -5.635,-5.443 c -6.955,-6.717 -16.08,-10.417 -25.7,-10.417 -12.612,0 -24.094,6.512 -30.819,16.667 5.964,-4.026 13.047,-6.427 20.579,-6.427 9.62,0 18.745,3.7 25.7,10.417 l 5.635,5.443 6.73,-4.015 c 7.585,-4.527 16.215,-6.922 24.95,-6.922 25.555,0 46.93,19.985 48.66,45.497 l 0.645,9.548 10.075,-0.01 c 20.275,0.167 36.72,16.71 36.72,37.023 0,9.187 -3.435,18.022 -9.675,24.878 l -3.22,3.532 0.645,4.735 c 0.295,2.178 0.43,3.958 0.43,5.605 0,8.75 -2.762,16.855 -7.43,23.535 10.665,-7.455 17.67,-19.804 17.67,-33.775 0,-1.647 -0.135,-3.427 -0.43,-5.605 l -0.645,-4.735 3.22,-3.532 c 6.24,-6.856 9.675,-15.691 9.675,-24.878 z"
       id="path8"
       inkscape:connector-curvature="0" /><path
       style="fill:#ffffff"
       d="m 124.677,220.187 8.21,-4.055 -1.494,-4.13 c -4.258,2.739 -7.806,6.274 -10.483,10.381 1.209,-0.789 2.447,-1.544 3.767,-2.196 z"
       id="path10"
       inkscape:connector-curvature="0" /><path
       style="fill:#ffffff"
       d="m 161.857,159.957 7.48,-0.268 2.015,-7.207 c 0.27,-0.964 0.69,-1.848 1.033,-2.776 l -0.288,0.011 c -12.036,0.432 -22.435,6.716 -28.524,16.071 5.264,-3.458 11.504,-5.587 18.284,-5.831 z"
       id="path12"
       inkscape:connector-curvature="0" /><path
       style="fill:#ffffff"
       d="m 176.217,264.13 -5.342,6.186 c 2.135,-1.519 4.115,-3.273 5.897,-5.263 z"
       id="path14"
       inkscape:connector-curvature="0" /></g><g
     id="g58"
     transform="translate(-62.478172,-95.266038)" /><g
     id="g60"
     transform="translate(-62.478172,-95.266038)" /><g
     id="g62"
     transform="translate(-62.478172,-95.266038)" /><g
     id="g64"
     transform="translate(-62.478172,-95.266038)" /><g
     id="g66"
     transform="translate(-62.478172,-95.266038)" /><g
     id="g68"
     transform="translate(-62.478172,-95.266038)" /><g
     id="g70"
     transform="translate(-62.478172,-95.266038)" /><g
     id="g72"
     transform="translate(-62.478172,-95.266038)" /><g
     id="g74"
     transform="translate(-62.478172,-95.266038)" /><g
     id="g76"
     transform="translate(-62.478172,-95.266038)" /><g
     id="g78"
     transform="translate(-62.478172,-95.266038)" /><g
     id="g80"
     transform="translate(-62.478172,-95.266038)" /><g
     id="g82"
     transform="translate(-62.478172,-95.266038)" /><g
     id="g84"
     transform="translate(-62.478172,-95.266038)" /><g
     id="g86"
     transform="translate(-62.478172,-95.266038)" /><g
     id="g979"
     transform="matrix(0.7522577,0,0,0.7522577,289.94906,-128.36164)"
     style="fill:#1e87ff;fill-opacity:0.94117647"><g
       id="g916"
       style="fill:#1e87ff;fill-opacity:0.94117647"><g
         id="g914"
         style="fill:#1e87ff;fill-opacity:0.94117647"><path
           id="path910"
           d="m -190.56248,182.59884 c -36.8,0 -70.9,20.1 -88.9,51.8 -3.7,-0.8 -7.4,-1.1 -11.3,-1.1 -30.6,0 -55.6,24.9 -55.6,55.6 0,4.1 0.4,8.1 1.3,12.1 -20.1,14.2 -32.4,37.7 -32.4,62.7 0,41.8 33.5,79 73.2,81.2 0.2,0 0.3,0 0.5,0 h 197.8 c 0.2,0 0.4,0 0.6,0 45.900002,-3.2 81.800002,-42.6 81.800002,-89.5 0,-41 -28,-77.3 -66.2,-87.1 -7.8,-49.3 -50.100002,-85.7 -100.800002,-85.7 z m 149.000002,172.8 c 0,36.8 -29,68.8 -64.600002,71.4 h -197.3 c -30.3,-1.8 -55.9,-30.7 -55.9,-63.1 0,-21 11.3,-40.6 29.4,-51.1 3.8,-2.2 5.5,-6.9 3.9,-11 -1.5,-4 -2.2,-8.3 -2.2,-12.8 0,-20.7 16.8,-37.5 37.5,-37.5 4.4,0 8.7,0.8 12.8,2.2 4.4,1.6 9.3,-0.4 11.4,-4.6 13.8,-29.3 43.7,-48.2 76.1,-48.2 43.6,0 79.6,32.6 83.7,75.9 0.4,4.1 3.5,7.4 7.500002,8.1 32.8,5.6 57.7,36 57.7,70.7 z"
           inkscape:connector-curvature="0"
           style="fill:#1e87ff;fill-opacity:0.94117647" /></g></g><g
       id="g918"
       style="fill:#1e87ff;fill-opacity:0.94117647" /><g
       id="g920"
       style="fill:#1e87ff;fill-opacity:0.94117647" /><g
       id="g922"
       style="fill:#1e87ff;fill-opacity:0.94117647" /><g
       id="g924"
       style="fill:#1e87ff;fill-opacity:0.94117647" /><g
       id="g926"
       style="fill:#1e87ff;fill-opacity:0.94117647" /><g
       id="g928"
       style="fill:#1e87ff;fill-opacity:0.94117647" /><g
       id="g930"
       style="fill:#1e87ff;fill-opacity:0.94117647" /><g
       id="g932"
       style="fill:#1e87ff;fill-opacity:0.94117647" /><g
       id="g934"
       style="fill:#1e87ff;fill-opacity:0.94117647" /><g
       id="g936"
       style="fill:#1e87ff;fill-opacity:0.94117647" /><g
       id="g938"
       style="fill:#1e87ff;fill-opacity:0.94117647" /><g
       id="g940"
       style="fill:#1e87ff;fill-opacity:0.94117647" /><g
       id="g942"
       style="fill:#1e87ff;fill-opacity:0.94117647" /><g
       id="g944"
       style="fill:#1e87ff;fill-opacity:0.94117647" /><g
       id="g946"
       style="fill:#1e87ff;fill-opacity:0.94117647" /></g><g
     id="g1159"
     transform="matrix(0.25543875,0,0,0.25543875,79.980578,56.643969)"
     style="fill:#4d4d4d"><g
       id="g985"
       style="fill:#4d4d4d"><g
         id="g983"
         style="fill:#4d4d4d"><path
           id="path981"
           d="M 426.667,0 H 85.333 C 66.509,0 51.2,15.309 51.2,34.133 V 477.866 C 51.2,496.691 66.509,512 85.333,512 h 341.333 c 18.825,0 34.133,-15.309 34.133,-34.133 V 34.133 C 460.8,15.309 445.491,0 426.667,0 Z m 0,477.867 H 85.333 V 153.6 h 341.333 v 324.267 z m 0,-358.4 H 85.333 V 34.133 l 341.333,-0.017 v 85.351 z"
           inkscape:connector-curvature="0"
           style="fill:#4d4d4d" /></g></g><g
       id="g991"
       style="fill:#4d4d4d"><g
         id="g989"
         style="fill:#4d4d4d"><rect
           id="rect987"
           height="34.132999"
           width="34.132999"
           y="187.733"
           x="358.39999"
           style="fill:#4d4d4d" /></g></g><g
       id="g997"
       style="fill:#4d4d4d"><g
         id="g995"
         style="fill:#4d4d4d"><rect
           id="rect993"
           height="34.132999"
           width="34.132999"
           y="187.733"
           x="307.20001"
           style="fill:#4d4d4d" /></g></g><g
       id="g1003"
       style="fill:#4d4d4d"><g
         id="g1001"
         style="fill:#4d4d4d"><rect
           id="rect999"
           height="34.132999"
           width="102.4"
           y="187.733"
           x="119.467"
           style="fill:#4d4d4d" /></g></g><g
       id="g1009"
       style="fill:#4d4d4d"><g
         id="g1007"
         style="fill:#4d4d4d"><rect
           id="rect1005"
           height="34.132999"
           width="34.132999"
           y="273.06699"
           x="136.533"
           style="fill:#4d4d4d" /></g></g><g
       id="g1015"
       style="fill:#4d4d4d"><g
         id="g1013"
         style="fill:#4d4d4d"><rect
           id="rect1011"
           height="34.132999"
           width="34.132999"
           y="273.06699"
           x="204.8"
           style="fill:#4d4d4d" /></g></g><g
       id="g1021"
       style="fill:#4d4d4d"><g
         id="g1019"
         style="fill:#4d4d4d"><rect
           id="rect1017"
           height="34.132999"
           width="34.132999"
           y="273.06699"
           x="273.06699"
           style="fill:#4d4d4d" /></g></g><g
       id="g1027"
       style="fill:#4d4d4d"><g
         id="g1025"
         style="fill:#4d4d4d"><rect
           id="rect1023"
           height="34.132999"
           width="34.132999"
           y="273.06699"
           x="341.33301"
           style="fill:#4d4d4d" /></g></g><g
       id="g1033"
       style="fill:#4d4d4d"><g
         id="g1031"
         style="fill:#4d4d4d"><rect
           id="rect1029"
           height="34.132999"
           width="34.132999"
           y="341.33301"
           x="136.533"
           style="fill:#4d4d4d" /></g></g><g
       id="g1039"
       style="fill:#4d4d4d"><g
         id="g1037"
         style="fill:#4d4d4d"><rect
           id="rect1035"
           height="34.132999"
           width="34.132999"
           y="341.33301"
           x="204.8"
           style="fill:#4d4d4d" /></g></g><g
       id="g1045"
       style="fill:#4d4d4d"><g
         id="g1043"
         style="fill:#4d4d4d"><rect
           id="rect1041"
           height="34.132999"
           width="34.132999"
           y="341.33301"
           x="273.06699"
           style="fill:#4d4d4d" /></g></g><g
       id="g1051"
       style="fill:#4d4d4d"><g
         id="g1049"
         style="fill:#4d4d4d"><rect
           id="rect1047"
           height="34.132999"
           width="34.132999"
           y="409.60001"
           x="136.533"
           style="fill:#4d4d4d" /></g></g><g
       id="g1057"
       style="fill:#4d4d4d"><g
         id="g1055"
         style="fill:#4d4d4d"><rect
           id="rect1053"
           height="34.132999"
           width="34.132999"
           y="409.60001"
           x="204.8"
           style="fill:#4d4d4d" /></g></g><g
       id="g1063"
       style="fill:#4d4d4d"><g
         id="g1061"
         style="fill:#4d4d4d"><path
           id="path1059"
           d="M 341.333,341.333 V 409.6 h -68.267 v 34.133 H 358.4 c 9.421,0 17.067,-7.646 17.067,-17.067 v -85.333 z"
           inkscape:connector-curvature="0"
           style="fill:#4d4d4d" /></g></g><g
       id="g1065"
       style="fill:#4d4d4d" /><g
       id="g1067"
       style="fill:#4d4d4d" /><g
       id="g1069"
       style="fill:#4d4d4d" /><g
       id="g1071"
       style="fill:#4d4d4d" /><g
       id="g1073"
       style="fill:#4d4d4d" /><g
       id="g1075"
       style="fill:#4d4d4d" /><g
       id="g1077"
       style="fill:#4d4d4d" /><g
       id="g1079"
       style="fill:#4d4d4d" /><g
       id="g1081"
       style="fill:#4d4d4d" /><g
       id="g1083"
       style="fill:#4d4d4d" /><g
       id="g1085"
       style="fill:#4d4d4d" /><g
       id="g1087"
       style="fill:#4d4d4d" /><g
       id="g1089"
       style="fill:#4d4d4d" /><g
       id="g1091"
       style="fill:#4d4d4d" /><g
       id="g1093"
       style="fill:#4d4d4d" /></g><text
     xml:space="preserve"
     style="font-style:normal;font-variant:normal;font-weight:300;font-stretch:normal;font-size:60.47320557px;line-height:37.79575348px;font-family:Roboto;-inkscape-font-specification:'Roboto Light';letter-spacing:-5.15534115px;word-spacing:0px;fill:#000000;fill-opacity:1;stroke:none;stroke-width:1.51183009px;stroke-linecap:butt;stroke-linejoin:miter;stroke-opacity:1"
     x="654.12402"
     y="71.715469"
     id="text1163"><tspan
       sodipodi:role="line"
       id="tspan1161"
       x="654.12402"
       y="71.715469"
       style="font-style:normal;font-variant:normal;font-weight:300;font-stretch:normal;font-family:Roboto;-inkscape-font-specification:'Roboto Light';stroke-width:1.51183009px">Contador</tspan></text>
<text
     xml:space="preserve"
     style="font-style:normal;font-variant:normal;font-weight:normal;font-stretch:normal;font-size:206.01191711px;line-height:128.75744629px;font-family:Roboto;-inkscape-font-specification:Roboto;letter-spacing:-17.56251526px;word-spacing:0px;fill:#1e87ff;fill-opacity:0.94117647;stroke:none;stroke-width:5.15029764px;stroke-linecap:butt;stroke-linejoin:miter;stroke-opacity:1"
     x="288.20572"
     y="196.55444"
     id="text1163-6"><tspan
       sodipodi:role="line"
       id="tspan1161-7"
       x="288.20572"
       y="196.55444"
       style="letter-spacing:0px;fill:#1e87ff;fill-opacity:0.94117647;stroke-width:5.15029764px">Online</tspan></text>
</svg>